<svg xmlns="http://www.w3.org/2000/svg" width="800" height="172.878" viewBox="0 0 800 172.878">
  <g id="グループ_2466" data-name="グループ 2466" transform="translate(-320 -297)">
    <g id="ornamental" transform="matrix(1, 0.017, -0.017, 1, 450.73, 300.405)">
      <path id="パス_146" data-name="パス 146" d="M523.87,87.333c-.214-.214-.855.214-1.069.428-10.157,10.477-39.451,25.124-56.022,24.59-.748,0-1.283-.214-1.5-.641a.989.989,0,0,1,.107-1.283c.428-.535,2.673-2.673,6.629-7.27,10.477-5.239,22.772-16.571,30.256-25.552,3.314-4.063,5.987-7.27,8.018-9.943,5.239-7.377,5.88-10.477,4.6-11.653a2.847,2.847,0,0,0-.855-.428c-2.673-.641-9.3,6.735-18.5,17.534-4.063,4.7-8.553,9.836-13.471,15.716-5.025,6.094-10.691,11.226-14.112,15.075-9.194,4.063-22.238,8.874-24.055,6.522a.707.707,0,0,1-.107-.641c.428-2.245,3.956-5.773,4.918-6.308a14.643,14.643,0,0,1,1.5-.855c.428-.321.535-.855.107-1.069-.641-.214-1.069.107-2.352.855-1.176.641-3.207,1.818-9.729,5.773-3.207,1.924-7.8,3.207-11.547,3.956a4.314,4.314,0,0,1-1.6.107c-.428-.214-.641-.321-.428-.748a4.887,4.887,0,0,1,1.39-1.6c1.711-1.176,3.1-2.78,4.918-3.742a51.133,51.133,0,0,1,6.522-2.994c1.711-.641,3.742-1.711,5.666-1.6a13,13,0,0,0,3.528,0c.641-.107,1.6-.214,1.6-.428.107-.321-1.069-.214-1.39-.214a25.5,25.5,0,0,0-12.829.641c-.962.321-5.453,2.138-6.2,3.1-10.157,5.132-21.6,9.408-25.98,8.66-.535-.107-1.6.107-1.176-1.069.748-1.817,2.673-4.6,5.773-8.232.321-.321,9.408-11.333,15.93-17.961,3.421-3.421,9.622-8.874,11.226-9.622s-.107-.962-1.5-.962c-1.6.107-6.735.962-7.7,2.031a202.052,202.052,0,0,0-18.068,22.986c0-.107-.107-.321-.107-.428-.107-.214-.748.428-.962.535-.428.321-1.069.641-1.818,1.176a52.233,52.233,0,0,1-10.05,5.987,94.6,94.6,0,0,1-20.42,5.666s-1.711.107-2.138-.641c-.855-1.5,3.207-3.421,6.308-5.666,3.849-2.566,5.025-6.308,4.49-7.591a2.066,2.066,0,0,0-1.283-.962c-2.352-.748-8.339.107-12.616,2.459-5.88,3.207-11.44,6.629-15.5,9.088,2.352-2.352,4.7-5.239,5.025-7.056a2.351,2.351,0,0,0-.214-1.5c-1.5-2.031-5.987,0-12.081,3.1-2.138,1.069-4.383,2.138-6.629,3.207-9.3,4.17-16.678,5.88-17.32,5.025-.214-.214.641-1.283,2.031-3.1.321-.107,10.905-4.276,13.471-7.484a3.179,3.179,0,0,0,.855-2.138,1.524,1.524,0,0,0-.641-1.283c-.107,0-.107-.107-.214-.107-2.78-1.283-11.226,6.415-11.547,6.735-.962.962-2.138,2.138-3.207,3.314a81.368,81.368,0,0,1-18.817,4.276c-3.849.428-6.629.535-7.056.214s-.107-1.176.535-1.817,2.673-2.245,3.1-2.566c1.39-.962,2.673-2.031,3.207-2.459.748-.641,3.528-3.528,4.17-6.522.107-.428-.107-1.069-.535-1.176a15.5,15.5,0,0,0-5.453.214,39.752,39.752,0,0,0-6.949,2.031c-3.742,1.5-7.377,3.207-10.905,5.025-3.956,2.031-7.911,4.276-11.76,6.522.855-.962,1.711-1.817,2.566-2.78,4.7-4.811,7.056-7.591,6.094-8.981-2.459-3.314-23.2,6.842-33.143,12.295,4.063-4.063,5.88-7.27,5.559-8.981a1.47,1.47,0,0,0-.855-1.069c-2.78-1.069-10.691,2.994-19.458,6.842-4.918,2.245-8.446,4.063-12.188,5.453-1.924.748-3.421.855-3.849.321s4.17-6.094,5.239-7.27a10.567,10.567,0,0,0,2.352-2.673,6.983,6.983,0,0,0,1.283-1.176c.214-.214.641-.535.428-.641-.214-.214-1.176,0-1.39.107-4.063,4.063-14.54,9.3-17.747,10.477a15.577,15.577,0,0,1-4.811,1.39c-1.069.214-2.459.321-2.78,0-.535-.428-.321-1.6,1.5-3.1,10.157-9.194,18.068-10.157,19.886-10.05a16.886,16.886,0,0,0,4.7-.107c.321,0,.855-.321.748-.535a.471.471,0,0,0-.641-.428c-1.176.535-1.283.641-3.956,0a19.572,19.572,0,0,0-6.629,0c-6.2.748-10.37,3.314-12.723,5.88-14.005,6.735-20.741,8.232-24.162,8.446,0-1.176,0-2.245-.107-3.314.748-.641,1.5-.962,2.245-1.5,1.818-1.283,2.673-2.887,3.849-4.49,1.069-1.39,1.6-1.924,1.39-3.635,0-.321-.641-1.924-3.314-1.5a37.758,37.758,0,0,0-6.308,2.138c-.107-.321-.214-.748-.321-1.069a60.931,60.931,0,0,0-25.873-34.853,59.652,59.652,0,0,0-22.452-7.377,48.5,48.5,0,0,0,3.635-14.433c.535-7.7.641-14.968-6.629-21.062-4.7-3.849-16.464-6.308-27.69-5.559-18.068,1.5-29.4,11.653-43.513,24.055-14.112,12.295-30.577,41.7-29.4,65.216a2.354,2.354,0,0,0,.107.855,24.394,24.394,0,0,1-6.735-5.987C11.333,96.634,7.27,80.384,21.7,57.932,30.791,43.82,51,20.406,93.762,9.287c.321-.107,3.314-.535,3.421-1.176,0-.321-1.711-.107-2.459,0-44.8,8.981-64.682,34.319-73.876,48.538C6.094,79.635,10.585,96.634,15.716,103.69a28.048,28.048,0,0,0,7.377,6.735c1.711,18.5,14.968,30.042,16.571,31.325,15.823,13.043,47.79,18.6,65,18.6,1.5,0,2.887,0,4.17-.107,12.4-.855,53.991-5.666,66.179-31.325a28.511,28.511,0,0,0,2.673-11.44c4.49-.214,12.4-2.887,22.879-7.8-.641.855-1.5,2.245-2.031,3.1-.962,1.818-1.069,3.207-.641,4.063a1.618,1.618,0,0,0,1.5.748,25.487,25.487,0,0,0,7.377-1.818,96.221,96.221,0,0,0,13.364-7.056c-.321.321-.535.855-.962,1.283a28.633,28.633,0,0,0-3.635,4.918c-.535.855-.855,1.176-.535,1.711a1.926,1.926,0,0,0,1.711.641,13.846,13.846,0,0,0,3.528-.641c3.849-1.5,8.018-3.528,12.4-5.666,7.7-3.742,16.037-7.591,18.5-6.629,0,0,.107,0,.214.214,0,.321.321,3.207-8.874,11.226-.214.214-.321.321-.107.535.107.107.214.107.428.107a.535.535,0,0,0,.641,0c11.012-6.949,33.357-17.106,35.281-14.647.641.855-2.887,4.6-5.666,7.377-1.711,1.711-3.421,3.528-5.025,5.346h0l-.107.107h0v.428h0a.1.1,0,0,0,.107.107h.428a.81.81,0,0,0,.428-.214h0c.428-.214,1.069-.641,1.176-.641,4.811-2.566,9.622-5.132,14.433-7.591,3.1-1.6,6.308-3.1,9.515-4.49a38.675,38.675,0,0,1,5.88-2.138,13.443,13.443,0,0,1,3.528-.535,3.4,3.4,0,0,1,1.5.214c.535.428-.535,1.069-.855,1.283-2.352,1.818-6.735,4.6-8.446,7.8-.962,1.711-2.138,4.276-.641,5.239.641.428,3.849.321,8.018-.107a85.551,85.551,0,0,0,17.427-3.849c-.962,1.39-1.5,2.566-.962,3.314.321.428.962.641,2.031.641,3.849,0,11.867-3.1,17.213-5.559,2.352-1.069,4.49-2.138,6.629-3.207,4.811-2.459,9.729-4.7,10.691-3.421.107.107.107.321.107.641a9.782,9.782,0,0,1-2.566,4.276,29.025,29.025,0,0,1-4.383,4.49,8.16,8.16,0,0,1-1.176.855c-.214.107-1.818.855-1.069,1.39.107.107.641-.107.748-.107a4.82,4.82,0,0,0,1.176-.321,22.08,22.08,0,0,1,2.566-1.817c3.956-2.352,9.622-5.987,16.678-9.836,4.49-2.459,9.622-2.78,11.44-2.245.962.321-2.352,2.887-4.063,4.49a20.291,20.291,0,0,0-4.17,5.453c-1.176,1.818-2.78,2.673-2.031,4.17.535,1.069,1.6.748,3.1.748,1.39,0,14.54-2.673,21.276-5.88a62.954,62.954,0,0,0,10.157-6.2c.641-.428,1.5-1.176,2.031-1.5-1.176,1.711-2.994,5.025-3.528,5.987-1.5,2.673-2.994,4.918-2.887,5.88a1.174,1.174,0,0,0,.428.962c.641.535,1.711.535,2.994.535,3.635,0,9.622-1.6,19.565-6.094,1.283-.535,2.78-1.5,4.276-2.245a17.786,17.786,0,0,0-1.39,2.887c-.214.535-1.711,1.5-1.818,2.78-.107.748.428,1.069.962,1.39a6.592,6.592,0,0,0,2.138.214c1.5-.107,9.088-2.245,12.188-4.063,2.887-1.711,5.773-3.635,7.8-4.811-1.711,1.6-3.528,3.742-3.742,5.239a1.769,1.769,0,0,0,.321,1.5c.535.748,1.6.962,3.1.962,2.138,0,4.17-.641,7.377-1.6,2.994-.962,7.27-2.352,10.05-3.528.962-.428,1.924-.748,2.78-1.176a9.565,9.565,0,0,0-1.711,2.887,5.183,5.183,0,0,0-.214,2.994c.214.748.748,1.5,2.352,1.6.641,0,1.283.107,1.924.107,16.464,0,44.582-14.54,54.525-24.7C523.335,88.4,524.084,87.547,523.87,87.333Zm-41.054,2.245c3.849-5.132,8.767-10.264,13.15-15.609,7.7-9.194,14.647-17.534,17.961-17.747.962.107.535,1.5.428,2.245-.428,1.711-2.031,4.6-4.918,8.446-2.031,2.78-4.811,6.094-8.018,10.157-6.629,8.339-17.961,18.5-27.476,23.948C476.294,98.024,479.287,94.282,482.816,89.578ZM326.082,106.042c5.025-4.918,8.981-7.056,9.836-6.415l.107.214a.625.625,0,0,1,.107.428,1.7,1.7,0,0,1-.428,1.283,36.919,36.919,0,0,1-11.119,6.2A11.441,11.441,0,0,1,326.082,106.042ZM34.426,89.257c5.987-11.44,13.685-22.986,20.634-30.363,2.566-2.352,14.005-14.219,24.59-23.2,15.93-13.471,35.388-16.464,43.513-10.05,7.056,5.559,7.056,13.257,6.415,20.634a45.135,45.135,0,0,1-3.635,14.112,99.528,99.528,0,0,0-27.37,1.069c-29.187,4.811-49.607,20.955-59.443,30.9-.535.535-1.069,1.283-.855,1.5s1.6-.962,1.818-1.176C51.211,83.056,69.707,67.34,98.573,62.529a95.612,95.612,0,0,1,26.835-1.069c-9.622,22.238-34.64,46.507-65.216,53.563-9.194,2.138-22.986,1.283-33.357-3.528C27.37,105.829,29.722,98.131,34.426,89.257Zm139.52,39.023c-11.867,25.124-53.028,29.935-65.323,30.791-15.4,1.069-51.425-4.17-68.317-18.282a44.624,44.624,0,0,1-8.874-10.264,39.39,39.39,0,0,1-4.276-11.44,23.37,23.37,0,0,1-.321-6.629,49.863,49.863,0,0,0,20.955,4.49,76.132,76.132,0,0,0,13.792-1.39c30.577-7.163,55.274-32.074,64.682-53.991a58.926,58.926,0,0,1,22.345,7.27,59.8,59.8,0,0,1,25.445,34.212c.107.321.214.748.321,1.176a163.923,163.923,0,0,0-19.993,9.943c4.383-3.742,7.056-6.842,5.773-9.088-1.39-2.138-6.2-.321-11.974,2.459-1.5.748-2.78,1.711-4.49,2.566-8.125,3.956-18.068,7.911-21.382,6.522-.962-.535,1.711-2.673,7.163-7.911.214-.214,3.1-2.673,3.314-4.17.107-.214,0-.535,0-1.069a11.836,11.836,0,0,1,0-2.78c.107-1.711-.214-1.711.748-3.314.107-.214,5.239-4.7,4.811-5.666s-3.849-.107-4.6,1.5a25.409,25.409,0,0,0-1.283,3.421A106.4,106.4,0,0,1,95.794,117.91a157.434,157.434,0,0,1-26.835,6.415c-.321,0-3.421.214-3.314.641s2.887.107,2.887.107a95.229,95.229,0,0,0,27.69-6.094,114.475,114.475,0,0,0,35.922-20.527,4.011,4.011,0,0,0-.107,1.069c0,.855-.214,2.566-.214,3.849-1.39.214-3.849,2.352-3.956,2.566-3.742,3.849-7.056,8.66-6.735,10.691a1.222,1.222,0,0,0,.748.855,7.072,7.072,0,0,0,2.673.321c4.918,0,12.4-3.742,19.672-7.27,1.6-.748,3.1-1.711,4.7-2.459,4.918-2.352,9.729-3.956,10.584-2.566,1.069,1.818-3.956,6.415-8.446,10.37-.214.107-.748.428-.748.855s1.39.107,1.39.107c.855-.428,1.5-.748,3.314-1.711,4.918-2.78,13.257-7.484,19.886-10.157a46.663,46.663,0,0,1,1.5,5.88,14.7,14.7,0,0,0-2.459,4.918,1.09,1.09,0,0,0,.535.855,5,5,0,0,0,2.352.321A34.712,34.712,0,0,1,173.946,128.28Zm2.459-14.647a20.6,20.6,0,0,1,.107,2.566,5.314,5.314,0,0,1-1.818-.428C174.695,115.344,175.443,114.6,176.405,113.633Zm-.748-8.981a20.075,20.075,0,0,1,6.629-1.711c.855,0,.641.855.428,1.176-.748,1.6-1.818,1.924-4.383,4.276a9.233,9.233,0,0,0-1.39,1.5A34.128,34.128,0,0,0,175.657,104.653Z" transform="translate(0)" fill="#ad9258"/>
      <path id="パス_147" data-name="パス 147" d="M330.011,83.494c.214,0,1.069-1.711,1.176-1.924,13.9-27.156,49.287-34.746,61.047-34.1,14.861.748,26.942,3.849,47.576,12.509,5.453,2.245,18.068,5.666,27.37,2.673,6.629-2.245,10.584-5.239,12.936-7.8.214-.214,1.176-1.5.855-1.39a8,8,0,0,0-1.924,1.39c-2.459,2.673-6.735,5.025-12.188,6.842-8.981,2.994-21.276-.428-26.621-2.566-20.741-8.66-32.929-11.76-47.9-12.616-11.867-.641-48.966,8.125-61.688,34.746-.107.214-1.069,2.138-.748,2.245Z" transform="translate(22.051 2.663)" fill="#ad9258"/>
    </g>
    <rect id="長方形_2738" data-name="長方形 2738" width="800" height="170" transform="translate(320 297)" fill="none"/>
  </g>
</svg>
